# xmcd
#
# Track frame offsets:
#	150
#	12217
#	35188
#	59394
#	73718
#	86310
#	97292
#	108486
#	121352
#	135171
#	149207
#	160873
#	174473
#	189136
#	203031
#	231484
#	244317
#	256305
#	266626
#	279372
#	290168
#
# Disc length: 4690 seconds
#
# Revision: 0
# Processed by: cddbd v1.5.1PL0 Copyright (c) Steve Scherf et al.
# Submitted via: dBpowerAMP V4.0
#
DISCID=40125015
DTITLE=Various Artist - The Ultimate Blues Collection Vol 1
DYEAR=2003
DGENRE=Blues
TTITLE0=John Lee Hooker: Boom Boom Boom
TTITLE1=BB King: The Thrill is Gone
TTITLE2=Muddy Waters: Mannish Boy
TTITLE3=Buddy Guy: My Time After a While
TTITLE4=Jimmy Rogers: Walking by Myself
TTITLE5=Howlin' Wolf: The Red Rooster
TTITLE6=Bo Diddley: Who do you Love?
TTITLE7=Muddy Waters: I just want to make love to you
TTITLE8=Howlin' Wof: Smokestack Lightning
TTITLE9=Sonny Boy Williamson: Help Me
TTITLE10=Etta James: I'd rather go blind
TTITLE11=Koto Taylor: Wang Dang Doodle
TTITLE12=Bobby Bland: Stormy Monday Blues
TTITLE13=Bo Diddley: Before you Accuse me
TTITLE14=Luther Allison: Luther's Blues
TTITLE15=Muddy Waters: I'm your Hoochie Coochie Man
TTITLE16=Little Walter: My Babe
TTITLE17=Dale Hawkins: Suzie Q
TTITLE18=Tommy Tucker: High Heel Sneakers
TTITLE19=Elmore James: Madison Blues
TTITLE20=T Bone Walker: Paris Blues
EXTD=
EXTT0=
EXTT1=
EXTT2=
EXTT3=
EXTT4=
EXTT5=
EXTT6=
EXTT7=
EXTT8=
EXTT9=
EXTT10=
EXTT11=
EXTT12=
EXTT13=
EXTT14=
EXTT15=
EXTT16=
EXTT17=
EXTT18=
EXTT19=
EXTT20=
PLAYORDER=
